# xmcd
#
# Track frame offsets:
#	150
#	14794
#	26039
#	40946
#	54597
#	64061
#	82655
#	92123
#	100776
#	109353
#	121374
#	134032
#	142045
#	157150
#	169441
#	182083
#	195650
#	205238
#
# Disc length: 3085 seconds
#
# Revision: 26
# Processed by: cddbd v1.5.2PL0 Copyright (c) Steve Scherf et al.
# Submitted via: EasyCDDAExtractor 12.0.1.1
#
DISCID=0e0c0b12
DTITLE=Johnny Cash - Unearthed Volume 1 (Who's Gonna Cry)
DYEAR=2003
DGENRE=Country
TTITLE0=Long Black Veil
TTITLE1=Flesh and Blood
TTITLE2=Just the Other Side of Nowhere
TTITLE3=If I Give My Soul
TTITLE4=Understand Your Man
TTITLE5=Banks of the Ohio
TTITLE6=Two Timin' Woman
TTITLE7=The Caretaker
TTITLE8=Old Chunk of Coal
TTITLE9=I'm Going to Memphis
TTITLE10=Breaking Bread
TTITLE11=Waiting for a Train
TTITLE12=Casey's Last Ride
TTITLE13=No Earthly Good
TTITLE14=The Fourth Man in the Fire
TTITLE15=Dark as a Dungeon
TTITLE16=Book Review
TTITLE17=Down There by the Train (alternate take)
EXTD=YEAR: 2003
EXTT0=
EXTT1=
EXTT2=
EXTT3=
EXTT4=
EXTT5=
EXTT6=
EXTT7=
EXTT8=
EXTT9=
EXTT10=
EXTT11=
EXTT12=
EXTT13=
EXTT14=
EXTT15=
EXTT16=
EXTT17=
PLAYORDER=
